<?xml version="1.0" encoding="utf-8"?>
<!-- Generator: Adobe Illustrator 19.1.0, SVG Export Plug-In . SVG Version: 6.00 Build 0)  -->
<svg version="1.1" id="Layer_1" xmlns="http://www.w3.org/2000/svg" xmlns:xlink="http://www.w3.org/1999/xlink" x="0px" y="0px"
	 viewBox="0 0 256 256" style="enable-background:new 0 0 256 256;" xml:space="preserve">
<g>
	<path d="M170.7,25.5l-3,3.3l-1.6-0.7l9.7-10.4l1.9,0.9l-1.3,14.2l-1.7-0.8l0.4-4.5L170.7,25.5z M175.3,26.1l0.4-4.1
		c0.1-0.9,0.2-1.7,0.4-2.5l0,0c-0.5,0.6-1,1.3-1.6,1.9l-2.8,3L175.3,26.1z"/>
	<path d="M177.7,33.5c0.4-0.5,0.9-1.4,1.3-2.1l5.9-10.1l1.5,0.9l-3.1,5.2l0,0c1.1-0.6,2.4-0.7,3.7,0.1c2.1,1.2,2.5,3.8,1,6.3
		c-1.8,3-4.5,3.4-6.4,2.3c-1.2-0.7-1.9-1.7-1.9-3.2l-0.1,0l-0.9,1.3L177.7,33.5z M181.2,31c-0.1,0.2-0.2,0.4-0.3,0.6
		c-0.3,1.2,0.1,2.5,1.2,3.1c1.6,0.9,3.3,0.2,4.4-1.7c1-1.7,1-3.6-0.7-4.6c-1-0.6-2.4-0.5-3.4,0.5c-0.1,0.2-0.3,0.3-0.5,0.6L181.2,31
		z"/>
	<path d="M197.3,40.6c-2.1,2.9-5,2.7-6.9,1.3c-2.1-1.6-2.6-4.3-0.8-6.8c1.9-2.6,4.8-2.9,6.9-1.3C198.8,35.4,199.1,38.2,197.3,40.6z
		 M191.1,36.1c-1.3,1.7-1.2,3.7,0.2,4.7c1.4,1,3.3,0.5,4.6-1.3c1-1.3,1.6-3.5-0.1-4.7C194,33.6,192.2,34.6,191.1,36.1z"/>
	<path d="M203.7,49.3c-0.7,0.7-1.3,1.4-1.7,2l-1.2-1l1-1.2l0,0c-0.9,0.3-2.3,0.3-3.6-0.8c-1.1-1-1.9-2.9,0.4-5.4l3.8-4.2l1.3,1.2
		l-3.6,4c-1.2,1.4-1.7,2.7-0.5,3.7c0.9,0.8,2,0.7,2.8,0.4c0.2-0.1,0.5-0.3,0.7-0.6l4-4.4l1.3,1.2L203.7,49.3z"/>
	<path d="M214.4,46.4l-2,1.9l1.7,1.8l-1,0.9l-1.7-1.8l-3.8,3.6c-0.9,0.8-1.1,1.5-0.5,2.2c0.3,0.3,0.6,0.5,0.8,0.7l-0.9,1
		c-0.3-0.2-0.8-0.5-1.2-1c-0.6-0.6-0.8-1.3-0.8-1.9c0-0.7,0.5-1.4,1.4-2.2l3.9-3.6l-1-1.1l1-0.9l1,1.1l1.7-1.6L214.4,46.4z"/>
	<path d="M218.3,64.3l-4.3,1.2l-1-1.5l13.8-3.6l1.2,1.8l-8.7,11.3l-1-1.6l2.8-3.5L218.3,64.3z M221.9,67.3l2.5-3.2
		c0.6-0.7,1.1-1.3,1.7-1.9l0,0c-0.8,0.3-1.6,0.5-2.4,0.8l-4,1L221.9,67.3z"/>
	<path d="M220,74.8c0.6-0.3,1.5-0.7,2.3-1.1l10.4-5.3l0.8,1.5l-5.4,2.8l0,0c1.2,0.1,2.4,0.7,3.1,2.1c1.1,2.1,0.1,4.6-2.5,5.9
		c-3.1,1.6-5.6,0.4-6.6-1.5c-0.6-1.2-0.7-2.5,0.1-3.7l0-0.1l-1.5,0.7L220,74.8z M224.3,74.6c-0.2,0.1-0.4,0.2-0.5,0.4
		c-0.9,0.9-1.2,2.1-0.6,3.3c0.8,1.6,2.7,1.9,4.7,0.9c1.7-0.9,2.7-2.5,1.9-4.2c-0.5-1.1-1.8-1.7-3.1-1.4c-0.2,0.1-0.4,0.1-0.7,0.2
		L224.3,74.6z"/>
	<path d="M232.7,91.3c-3.3,1.3-5.7-0.5-6.5-2.7c-0.9-2.4,0.1-5,3-6.1c3-1.2,5.6,0.1,6.5,2.6C236.7,87.8,235.5,90.2,232.7,91.3z
		 M229.8,84.2c-2,0.8-3,2.5-2.4,4.1c0.6,1.6,2.5,2.2,4.6,1.4c1.5-0.6,3.2-2.1,2.4-4C233.7,83.7,231.6,83.5,229.8,84.2z"/>
	<path d="M233.4,102.1c-1,0.3-1.8,0.5-2.5,0.8l-0.4-1.5l1.5-0.5l0,0c-0.9-0.2-2.1-1-2.6-2.6c-0.4-1.5-0.1-3.4,3.2-4.3l5.5-1.5
		l0.5,1.7l-5.2,1.4c-1.8,0.5-2.8,1.3-2.4,2.9c0.3,1.1,1.3,1.7,2.2,1.8c0.3,0,0.6,0,0.9-0.1l5.7-1.6l0.5,1.7L233.4,102.1z"/>
	<path d="M244,105.4l-2.7,0.5l0.5,2.5l-1.3,0.2l-0.5-2.5l-5.1,0.9c-1.2,0.2-1.8,0.7-1.6,1.6c0.1,0.5,0.2,0.8,0.3,1l-1.3,0.3
		c-0.2-0.3-0.4-0.8-0.5-1.5c-0.1-0.8,0-1.5,0.4-2c0.4-0.6,1.2-0.9,2.4-1.1l5.2-1l-0.3-1.5l1.3-0.2l0.3,1.5l2.3-0.4L244,105.4z"/>
	<path d="M237.6,122.6l-4.3-1.3l0-1.8l13.6,4.4l0,2.1l-13.4,4.8l0-1.9l4.2-1.5L237.6,122.6z M239.1,127l3.9-1.4
		c0.9-0.3,1.7-0.5,2.4-0.7l0,0c-0.8-0.2-1.6-0.4-2.5-0.6L239,123L239.1,127z"/>
	<path d="M233.4,132.3c0.7,0.1,1.6,0.2,2.5,0.3l11.6,1.1l-0.2,1.7l-6.1-0.6l0,0c1,0.7,1.6,1.9,1.5,3.5c-0.2,2.4-2.4,3.9-5.3,3.6
		c-3.4-0.3-5-2.7-4.7-4.8c0.1-1.4,0.8-2.5,2.1-3.1l0-0.1l-1.6-0.2L233.4,132.3z M237.1,134.5c-0.2,0-0.4,0-0.6,0
		c-1.2,0.2-2.2,1.2-2.3,2.4c-0.2,1.8,1.2,3.1,3.4,3.3c1.9,0.2,3.7-0.7,3.9-2.5c0.1-1.2-0.6-2.4-1.9-2.9c-0.2-0.1-0.4-0.1-0.7-0.2
		L237.1,134.5z"/>
	<path d="M235.2,153.1c-3.5-0.7-4.5-3.4-4.1-5.7c0.5-2.6,2.8-4.2,5.8-3.6c3.2,0.6,4.6,3.1,4.1,5.7
		C240.5,152.3,238.1,153.7,235.2,153.1z M236.7,145.6c-2.1-0.4-3.9,0.5-4.2,2.1c-0.3,1.6,1,3.2,3.1,3.6c1.6,0.3,3.8-0.1,4.2-2.1
		C240.2,147.2,238.5,145.9,236.7,145.6z"/>
	<path d="M230,162.6c-1-0.3-1.8-0.5-2.5-0.7l0.5-1.5l1.5,0.4l0,0c-0.6-0.7-1.3-1.9-0.8-3.6c0.5-1.5,1.8-2.9,5-1.9l5.4,1.7l-0.5,1.7
		l-5.1-1.6c-1.8-0.5-3.1-0.4-3.6,1.1c-0.4,1.1,0.2,2.2,0.8,2.7c0.2,0.2,0.5,0.3,0.8,0.4l5.7,1.8l-0.5,1.7L230,162.6z"/>
	<path d="M237.2,171.1l-2.6-1l-0.9,2.3l-1.2-0.5l0.9-2.3l-4.8-2c-1.1-0.5-1.9-0.4-2.2,0.5c-0.2,0.4-0.2,0.8-0.3,1l-1.3-0.4
		c0-0.4,0.1-0.9,0.4-1.5c0.3-0.8,0.8-1.3,1.4-1.5c0.7-0.3,1.5-0.1,2.6,0.3l4.9,2l0.6-1.4l1.2,0.5l-0.6,1.4l2.2,0.9L237.2,171.1z"/>
	<path d="M222.6,182.2l-2.9-3.4l0.9-1.5l9,11l-1.1,1.8l-13.9-3.2l1-1.6l4.4,1L222.6,182.2z M221.4,186.7l4,0.9
		c0.9,0.2,1.7,0.5,2.5,0.7l0,0c-0.6-0.6-1.2-1.2-1.7-1.9l-2.6-3.2L221.4,186.7z"/>
	<path d="M213.7,188.1c0.5,0.4,1.2,1.1,1.9,1.6l9.2,7.2l-1.1,1.4l-4.8-3.7l0,0c0.5,1.2,0.3,2.5-0.6,3.7c-1.5,1.9-4.1,2-6.4,0.2
		c-2.7-2.1-2.7-4.9-1.4-6.6c0.9-1.1,2-1.7,3.4-1.4l0,0l-1.2-1L213.7,188.1z M215.7,191.9c-0.2-0.1-0.4-0.2-0.6-0.3
		c-1.2-0.5-2.5-0.2-3.2,0.8c-1.1,1.4-0.6,3.2,1.1,4.6c1.5,1.2,3.5,1.4,4.6,0c0.7-0.9,0.8-2.3,0-3.4c-0.1-0.2-0.3-0.4-0.5-0.5
		L215.7,191.9z"/>
	<path d="M204.1,206.6c-2.6-2.5-2-5.4-0.4-7c1.8-1.9,4.6-2,6.8,0.1c2.3,2.2,2.2,5.1,0.4,7C209,208.7,206.3,208.6,204.1,206.6z
		 M209.4,201c-1.5-1.5-3.5-1.7-4.7-0.5c-1.2,1.2-0.9,3.2,0.7,4.7c1.2,1.1,3.2,2,4.7,0.5C211.5,204.2,210.7,202.3,209.4,201z"/>
	<path d="M194.6,211.8c-0.6-0.8-1.2-1.4-1.8-2l1.2-1l1.1,1.1l0,0c-0.2-0.9,0-2.3,1.3-3.4c1.2-1,3.1-1.5,5.3,1.1l3.7,4.3L204,213
		l-3.5-4.1c-1.2-1.4-2.4-2-3.6-1c-0.9,0.8-1,1.9-0.7,2.7c0.1,0.3,0.3,0.5,0.5,0.8l3.8,4.5l-1.3,1.1L194.6,211.8z"/>
	<path d="M196.1,222.8l-1.6-2.3l-2.1,1.5l-0.8-1.1l2.1-1.5l-3-4.2c-0.7-1-1.4-1.3-2.2-0.8c-0.4,0.3-0.6,0.5-0.8,0.7l-0.8-1
		c0.2-0.3,0.6-0.7,1.1-1.1c0.7-0.5,1.4-0.6,2-0.5c0.7,0.1,1.4,0.7,2,1.7l3.1,4.3l1.2-0.9l0.8,1.1l-1.2,0.9l1.3,1.9L196.1,222.8z"/>
	<path d="M177.8,224.3l-0.6-4.4l1.6-0.8l1.7,14.1l-1.9,0.9l-10-10.1l1.7-0.8l3.1,3.2L177.8,224.3z M174.4,227.5l2.9,2.9
		c0.7,0.7,1.2,1.3,1.7,1.9l0,0c-0.2-0.8-0.3-1.6-0.4-2.5l-0.5-4.1L174.4,227.5z"/>
	<path d="M167.2,224.6c0.2,0.6,0.5,1.6,0.8,2.4l3.9,11l-1.6,0.6l-2-5.7l0,0c-0.2,1.2-1,2.3-2.5,2.8c-2.3,0.8-4.5-0.5-5.5-3.3
		c-1.2-3.3,0.3-5.6,2.4-6.3c1.3-0.5,2.6-0.3,3.7,0.6l0.1,0l-0.5-1.5L167.2,224.6z M166.8,228.8c-0.1-0.2-0.2-0.4-0.3-0.6
		c-0.7-1-2-1.5-3.2-1.1c-1.7,0.6-2.3,2.4-1.5,4.5c0.6,1.8,2.1,3.1,3.9,2.4c1.1-0.4,1.9-1.5,1.8-2.9c0-0.2-0.1-0.4-0.1-0.7
		L166.8,228.8z"/>
	<path d="M149.2,235c-0.8-3.5,1.2-5.6,3.5-6.1c2.5-0.6,5,0.8,5.7,3.8c0.8,3.2-0.9,5.5-3.5,6.1C152.2,239.4,149.9,237.9,149.2,235z
		 M156.6,233.1c-0.5-2.1-2.1-3.3-3.7-2.9c-1.6,0.4-2.5,2.2-2,4.3c0.4,1.6,1.7,3.4,3.7,2.9C156.6,237,157.1,234.9,156.6,233.1z"/>
	<path d="M138.3,234.2c-0.1-1-0.3-1.9-0.4-2.6l1.5-0.2l0.3,1.6l0,0c0.4-0.8,1.2-2,2.9-2.2c1.5-0.2,3.4,0.4,3.9,3.8l0.7,5.6l-1.7,0.2
		l-0.7-5.3c-0.2-1.8-1-3-2.5-2.8c-1.2,0.2-1.9,1.1-2.1,1.9c-0.1,0.3-0.1,0.6,0,0.9l0.8,5.9l-1.7,0.2L138.3,234.2z"/>
	<path d="M133.7,244.3l-0.1-2.8l-2.5,0.1l-0.1-1.3l2.5-0.1l-0.3-5.2c-0.1-1.2-0.4-1.9-1.4-1.8c-0.5,0-0.8,0.1-1,0.2l-0.1-1.3
		c0.3-0.2,0.9-0.3,1.5-0.3c0.8,0,1.5,0.2,1.9,0.6c0.5,0.5,0.7,1.3,0.8,2.5l0.3,5.3l1.5-0.1l0.1,1.3l-1.5,0.1l0.1,2.3L133.7,244.3z"
		/>
	<path d="M117.5,235.8l1.9-4l1.8,0.2l-6.1,12.9l-2.1-0.2l-3-13.9l1.8,0.2l0.9,4.4L117.5,235.8z M112.9,236.6l0.9,4
		c0.2,0.9,0.3,1.7,0.4,2.5l0,0c0.3-0.8,0.6-1.6,1-2.3l1.8-3.7L112.9,236.6z"/>
	<path d="M108.4,230.3c-0.2,0.6-0.4,1.6-0.6,2.4l-2.6,11.4l-1.7-0.4l1.4-5.9l0,0c-0.8,0.9-2.1,1.3-3.6,1c-2.3-0.5-3.5-2.9-2.9-5.7
		c0.8-3.4,3.3-4.6,5.4-4.1c1.4,0.3,2.3,1.1,2.7,2.5l0.1,0l0.4-1.5L108.4,230.3z M105.7,233.6c0-0.2,0.1-0.4,0.1-0.6
		c-0.1-1.3-0.9-2.3-2.1-2.6c-1.8-0.4-3.2,0.8-3.7,3c-0.4,1.9,0.2,3.7,2,4.2c1.2,0.3,2.4-0.3,3.1-1.5c0.1-0.2,0.2-0.4,0.3-0.7
		L105.7,233.6z"/>
	<path d="M87.6,229.4c1.2-3.4,4-4.1,6.2-3.3c2.5,0.9,3.8,3.3,2.8,6.2c-1.1,3.1-3.7,4.2-6.2,3.3C87.7,234.7,86.6,232.2,87.6,229.4z
		 M94.9,231.8c0.7-2,0.1-3.9-1.6-4.5c-1.6-0.5-3.3,0.5-4,2.6c-0.5,1.6-0.4,3.8,1.5,4.5C92.8,235,94.3,233.5,94.9,231.8z"/>
	<path d="M78.8,222.9c0.4-0.9,0.8-1.7,1-2.4l1.4,0.7l-0.6,1.5l0,0c0.7-0.5,2.1-1,3.7-0.3c1.4,0.6,2.7,2.2,1.2,5.3l-2.4,5.1l-1.6-0.7
		l2.3-4.9c0.8-1.7,0.8-3-0.7-3.7c-1.1-0.5-2.2-0.1-2.8,0.5c-0.2,0.2-0.4,0.5-0.5,0.7l-2.5,5.4l-1.6-0.7L78.8,222.9z"/>
	<path d="M69.5,228.9l1.4-2.4l-2.2-1.2l0.7-1.2l2.2,1.2l2.6-4.5c0.6-1,0.6-1.8-0.2-2.3c-0.4-0.2-0.7-0.3-0.9-0.4l0.6-1.2
		c0.4,0,0.9,0.2,1.5,0.6c0.7,0.4,1.2,1,1.3,1.6c0.2,0.7-0.1,1.5-0.7,2.5l-2.6,4.6l1.3,0.7l-0.7,1.2l-1.3-0.7l-1.1,2L69.5,228.9z"/>
	<path d="M60.4,213l3.8-2.4l1.4,1.1l-12.1,7.5l-1.6-1.3l5-13.3l1.4,1.2l-1.6,4.2L60.4,213z M56.1,211.2l-1.4,3.8
		c-0.3,0.9-0.7,1.6-1,2.3l0,0c0.7-0.5,1.4-1,2.1-1.5l3.5-2.2L56.1,211.2z"/>
	<path d="M55.7,203.5c-0.5,0.4-1.2,1.1-1.8,1.7l-8.4,8.2l-1.2-1.2l4.3-4.3l0,0c-1.2,0.3-2.5,0-3.6-1.1c-1.7-1.7-1.4-4.3,0.7-6.4
		c2.5-2.4,5.2-2.1,6.7-0.5c1,1,1.4,2.2,1,3.6l0,0l1.2-1.1L55.7,203.5z M51.7,204.9c0.2-0.2,0.3-0.3,0.4-0.5c0.6-1.1,0.5-2.4-0.4-3.3
		c-1.3-1.3-3.1-1-4.7,0.5c-1.4,1.4-1.9,3.2-0.6,4.6c0.8,0.9,2.2,1.1,3.4,0.4c0.2-0.1,0.4-0.2,0.6-0.4L51.7,204.9z"/>
	<path d="M38.7,191.5c2.8-2.2,5.6-1.3,7,0.6c1.6,2.1,1.4,4.8-1,6.7c-2.5,2-5.3,1.5-7-0.6C35.9,196.1,36.3,193.4,38.7,191.5z
		 M43.5,197.5c1.7-1.3,2.2-3.3,1.1-4.6c-1-1.3-3.1-1.3-4.8,0c-1.3,1-2.4,3-1.1,4.6C40,199.1,42.1,198.6,43.5,197.5z"/>
	<path d="M34.7,181.4c0.8-0.5,1.6-1,2.2-1.5l0.8,1.3l-1.3,0.9l0,0c0.9,0,2.3,0.3,3.2,1.7c0.8,1.3,1.1,3.3-1.8,5.1l-4.8,3.1l-0.9-1.5
		l4.5-2.9c1.5-1,2.3-2.1,1.4-3.5c-0.6-1-1.8-1.2-2.6-1.1c-0.3,0.1-0.6,0.2-0.8,0.4l-5,3.2l-0.9-1.5L34.7,181.4z"/>
	<path d="M23.6,181.4l2.5-1.3l-1.2-2.2l1.2-0.6l1.2,2.2l4.6-2.4c1.1-0.6,1.5-1.2,1-2c-0.2-0.4-0.4-0.7-0.6-0.8l1.1-0.7
		c0.3,0.2,0.6,0.7,0.9,1.3c0.4,0.7,0.5,1.4,0.2,2c-0.2,0.7-0.9,1.2-1.9,1.8l-4.7,2.5l0.7,1.3l-1.2,0.6l-0.7-1.3l-2,1.1L23.6,181.4z"
		/>
	<path d="M24.5,163.1l4.5,0l0.6,1.7l-14.2-0.1l-0.7-2l11.4-8.6l0.6,1.8l-3.6,2.7L24.5,163.1z M21.9,159.3l-3.3,2.5
		c-0.7,0.6-1.4,1-2.1,1.4l0,0c0.8-0.1,1.7-0.1,2.5-0.1l4.1,0L21.9,159.3z"/>
	<path d="M25.7,152.5c-0.7,0.1-1.6,0.3-2.5,0.4l-11.5,2.4l-0.4-1.7l6-1.2l0,0c-1.2-0.4-2.1-1.3-2.4-2.9c-0.5-2.3,1.1-4.4,4-5
		c3.4-0.7,5.5,1.1,6,3.2c0.3,1.4,0,2.6-1.1,3.5l0,0.1l1.6-0.3L25.7,152.5z M21.5,151.6c0.2,0,0.4-0.1,0.6-0.2c1.1-0.6,1.7-1.8,1.5-3
		c-0.4-1.8-2.1-2.6-4.2-2.1c-1.9,0.4-3.3,1.7-2.9,3.6c0.2,1.2,1.3,2.1,2.7,2.2c0.2,0,0.5,0,0.7,0L21.5,151.6z"/>
	<path d="M17.7,133.3c3.6-0.4,5.4,1.9,5.6,4.3c0.3,2.6-1.4,4.8-4.5,5.1c-3.2,0.3-5.3-1.6-5.6-4.2C13,135.7,14.8,133.6,17.7,133.3z
		 M18.6,140.9c2.1-0.2,3.6-1.6,3.4-3.3c-0.2-1.7-1.9-2.8-4-2.5c-1.6,0.2-3.6,1.2-3.4,3.3S16.8,141.1,18.6,140.9z"/>
	<path d="M19.9,122.7c1,0,1.9-0.1,2.6-0.1l0,1.6l-1.6,0.1l0,0c0.8,0.4,1.8,1.5,1.9,3.2c0,1.5-0.8,3.4-4.2,3.4L13,131l0-1.8l5.4-0.1
		c1.8,0,3.1-0.6,3-2.2c0-1.2-0.9-2-1.6-2.3c-0.3-0.1-0.6-0.2-0.9-0.1l-5.9,0.1l0-1.8L19.9,122.7z"/>
	<path d="M10.5,116.7l2.8,0.2l0.2-2.5l1.3,0.1l-0.2,2.5l5.2,0.4c1.2,0.1,1.9-0.2,2-1.2c0-0.5,0-0.8,0-1l1.3,0
		c0.1,0.3,0.2,0.9,0.1,1.6c-0.1,0.8-0.4,1.5-0.9,1.8c-0.6,0.5-1.4,0.6-2.6,0.5l-5.3-0.4l-0.1,1.5l-1.3-0.1l0.1-1.5l-2.3-0.2
		L10.5,116.7z"/>
	<path d="M21.1,101.7l3.8,2.4l-0.4,1.7l-11.9-7.8l0.5-2L27.2,95l-0.5,1.8l-4.5,0.3L21.1,101.7z M20.9,97.1l-4.1,0.3
		c-0.9,0.1-1.8,0.1-2.6,0.1l0,0c0.7,0.4,1.5,0.8,2.2,1.3l3.5,2.2L20.9,97.1z"/>
	<path d="M27.8,93.5c-0.6-0.3-1.5-0.7-2.3-1l-11-4.1l0.6-1.6l5.7,2.1l0,0c-0.8-1-1.1-2.3-0.5-3.7c0.8-2.2,3.3-3.1,6.1-2.1
		c3.2,1.2,4.1,3.9,3.3,5.9c-0.5,1.3-1.4,2.2-2.8,2.4l0,0.1l1.5,0.6L27.8,93.5z M24.8,90.4c0.2,0.1,0.4,0.1,0.6,0.2
		c1.3,0.1,2.4-0.5,2.9-1.7c0.6-1.7-0.4-3.3-2.4-4.1c-1.8-0.7-3.7-0.3-4.4,1.4c-0.4,1.1-0.1,2.5,1.1,3.3c0.2,0.1,0.4,0.2,0.6,0.3
		L24.8,90.4z"/>
	<path d="M31.4,72.9c3.2,1.6,3.5,4.5,2.4,6.6c-1.2,2.3-3.8,3.3-6.5,1.9c-2.9-1.5-3.6-4.2-2.4-6.6C26.1,72.4,28.8,71.6,31.4,72.9z
		 M28.1,79.9c1.9,0.9,3.9,0.6,4.6-1c0.8-1.5-0.1-3.3-2-4.3c-1.5-0.7-3.7-0.9-4.6,0.9S26.4,79,28.1,79.9z"/>
	<path d="M39,65.2c0.8,0.5,1.6,1,2.3,1.4l-0.8,1.3L39,67.1l0,0c0.4,0.8,0.7,2.2-0.2,3.7c-0.8,1.3-2.5,2.4-5.4,0.5l-4.8-3l0.9-1.5
		l4.5,2.9c1.6,1,2.9,1.2,3.8-0.2c0.6-1,0.4-2.1-0.1-2.8c-0.2-0.2-0.4-0.4-0.7-0.6l-5-3.2l0.9-1.5L39,65.2z"/>
	<path d="M34.2,55.1l2.2,1.7l1.5-2l1.1,0.8l-1.5,2l4.2,3.2c1,0.7,1.7,0.9,2.3,0.1c0.3-0.4,0.4-0.7,0.5-0.9l1.1,0.7
		c-0.1,0.4-0.3,0.8-0.8,1.4c-0.5,0.7-1.1,1-1.7,1.1c-0.7,0.1-1.5-0.3-2.4-1L36.5,59l-0.9,1.2l-1.1-0.8l0.9-1.2l-1.8-1.4L34.2,55.1z"
		/>
	<path d="M51.2,48.2l1.9,4l-1.3,1.2l-5.9-13l1.5-1.4L60,45.8L58.7,47l-3.9-2.1L51.2,48.2z M53.5,44.2l-3.6-1.9
		c-0.8-0.4-1.5-0.9-2.2-1.3l0,0c0.4,0.7,0.8,1.5,1.2,2.2l1.7,3.7L53.5,44.2z"/>
	<path d="M61.3,44.8c-0.4-0.6-0.9-1.4-1.4-2l-7-9.4l1.4-1l3.7,4.9l0,0c-0.2-1.2,0.3-2.5,1.6-3.4c1.9-1.4,4.5-0.9,6.2,1.5
		c2.1,2.8,1.4,5.5-0.4,6.7c-1.1,0.8-2.3,1.1-3.7,0.5l0,0l0.9,1.3L61.3,44.8z M60.4,40.6c0.1,0.2,0.3,0.3,0.4,0.5
		c1,0.8,2.3,0.8,3.3,0.1c1.5-1.1,1.5-3,0.1-4.7c-1.2-1.6-3-2.3-4.5-1.1c-1,0.7-1.4,2-0.8,3.3c0.1,0.2,0.2,0.4,0.4,0.6L60.4,40.6z"/>
	<path d="M75.4,29.4c1.8,3.1,0.5,5.7-1.5,6.9c-2.2,1.3-5,0.7-6.5-1.9c-1.7-2.8-0.8-5.5,1.5-6.9C71.2,26.1,73.8,26.9,75.4,29.4z
		 M68.8,33.5c1.1,1.8,3,2.6,4.4,1.7c1.4-0.9,1.7-2.9,0.6-4.7c-0.8-1.4-2.6-2.8-4.4-1.7C67.7,29.8,67.9,31.9,68.8,33.5z"/>
	<path d="M85.9,26.9c0.4,0.9,0.8,1.7,1.2,2.4l-1.4,0.7l-0.8-1.4l0,0c-0.1,0.9-0.6,2.3-2.1,3c-1.4,0.6-3.4,0.7-4.8-2.4L75.6,24
		l1.6-0.7l2.3,4.9c0.8,1.7,1.8,2.6,3.3,1.9c1.1-0.5,1.5-1.6,1.4-2.4c0-0.3-0.1-0.6-0.2-0.9l-2.5-5.4l1.6-0.7L85.9,26.9z"/>
	<path d="M87.3,15.9l1,2.6l2.4-0.9l0.5,1.3l-2.4,0.9l1.8,4.9c0.4,1.1,1,1.6,1.9,1.3c0.4-0.2,0.7-0.3,0.9-0.5l0.5,1.2
		c-0.3,0.2-0.7,0.5-1.4,0.8c-0.8,0.3-1.5,0.3-2,0c-0.6-0.3-1.1-1.1-1.5-2.1l-1.8-5l-1.4,0.5l-0.5-1.3l1.4-0.5l-0.8-2.2L87.3,15.9z"
		/>
	<path d="M105.4,19.2l-0.6,4.4l-1.8,0.3l2-14.1l2.1-0.4l7,12.4l-1.8,0.3l-2.2-3.9L105.4,19.2z M109.5,17l-2-3.6
		c-0.5-0.8-0.8-1.6-1.1-2.3l0,0c-0.1,0.8-0.1,1.7-0.2,2.5l-0.6,4.1L109.5,17z"/>
	<path d="M115.7,21.8c0-0.7,0-1.6-0.1-2.5l-0.9-11.7l1.7-0.1l0.5,6.1l0,0c0.5-1.1,1.6-1.9,3.2-2c2.4-0.2,4.2,1.7,4.4,4.6
		c0.3,3.5-1.8,5.3-3.9,5.5c-1.4,0.1-2.6-0.4-3.4-1.6l-0.1,0l0,1.6L115.7,21.8z M117.2,17.7c0,0.2,0.1,0.4,0.1,0.6
		c0.4,1.2,1.5,2,2.8,1.9c1.8-0.1,2.8-1.7,2.7-3.9c-0.1-1.9-1.3-3.5-3.1-3.4c-1.2,0.1-2.3,1-2.5,2.4c0,0.2-0.1,0.4,0,0.7L117.2,17.7z
		"/>
	<path d="M135.8,16.4c-0.1,3.6-2.6,5.1-5,5c-2.6-0.1-4.6-2-4.5-5.1c0.1-3.2,2.3-5.1,4.9-5C134.1,11.4,135.9,13.4,135.8,16.4z
		 M128.2,16.3c-0.1,2.1,1.1,3.8,2.8,3.8c1.7,0,3-1.5,3-3.7c0-1.6-0.7-3.7-2.8-3.8S128.2,14.4,128.2,16.3z"/>
	<path d="M146.1,19.9c-0.1,1-0.2,1.9-0.3,2.6l-1.5-0.2l0.1-1.6l0,0c-0.6,0.7-1.7,1.6-3.4,1.4c-1.5-0.2-3.2-1.3-2.8-4.6l0.7-5.6
		l1.7,0.2l-0.7,5.3c-0.2,1.8,0.2,3.1,1.7,3.3c1.2,0.2,2.1-0.6,2.5-1.3c0.1-0.2,0.2-0.6,0.3-0.9l0.8-5.9l1.7,0.2L146.1,19.9z"/>
	<path d="M153.2,11.4l-0.6,2.7l2.5,0.5l-0.3,1.3l-2.5-0.5l-1.1,5.1c-0.3,1.2-0.1,1.9,0.9,2.1c0.4,0.1,0.8,0.1,1,0.1l-0.2,1.3
		c-0.4,0.1-0.9,0-1.6-0.1c-0.8-0.2-1.4-0.6-1.7-1.1c-0.4-0.6-0.4-1.5-0.1-2.6l1.1-5.2l-1.5-0.3l0.3-1.3l1.5,0.3l0.5-2.3L153.2,11.4z
		"/>
</g>
</svg>
