<?xml version="1.0" encoding="utf-8"?>
<svg version="1.1" id="Layer_1" xmlns="http://www.w3.org/2000/svg" xmlns:xlink="http://www.w3.org/1999/xlink" x="0px" y="0px"
	 viewBox="0 0 800 400" style="enable-background:new 0 0 800 400;" xml:space="preserve">
	<path class="svg_glass" d="M227.6,307.2c-64.7,0-102.3-28.3-112.9-83.9c-13.3-69.9-0.4-125.1,110.8-123.1c102.9,1.8,123,38.8,116.8,107.8
		C337.4,262.8,292.3,307.2,227.6,307.2"/>
	<path class="svg_glass" d="M572.4,307.2c64.7,0,102.3-28.3,112.9-83.9c13.3-69.9,0.4-125.1-110.8-123.1c-102.9,1.8-123,38.8-116.8,107.8
		C462.6,262.8,507.7,307.2,572.4,307.2"/>
	<path class="svg_frame" d="M57.5,127.2c-6.9,0.1-6.8,8.5-6.7,12.1c0.2,15.4,4.7,14.3,18.7,14.5c20.8,0.3,21.6,34.1,25.6,52.7
		c15.6,73.1,50,114.4,131.8,114.4c70.5,0,112.3-28.9,142.2-138.8c2.3-8.3-9.9-16.3-5.7-23.5c5-8.7,22.5-11.2,32.3-11.2
		c1.7,0,6.7,0,8.4,0c9.9,0,27.3,2.5,32.3,11.2c4.2,7.2-7.9,15.2-5.7,23.5c29.9,109.9,71.8,138.8,142.2,138.8
		c81.8,0,116.2-41.3,131.8-114.4c4-18.7,4.8-52.4,25.6-52.7c14-0.2,18.5,0.8,18.7-14.5c0-3.6,0.2-12-6.7-12.1
		c-52.9-0.9-61.1-27.9-123.1-36.9c-59.1-8.5-112.9,0.7-150.2,20.5c-16.7,8.9-48,7.4-65.9,7c-1.1,0-5.5,0-6.6,0
		c-18,0.4-49.2,1.9-65.9-7c-37.3-19.8-91.1-29-150.2-20.5C118.6,99.2,110.4,126.2,57.5,127.2"/>
</svg>
