<?xml version="1.0" encoding="utf-8"?>
<!-- Generator: Adobe Illustrator 19.1.0, SVG Export Plug-In . SVG Version: 6.00 Build 0)  -->
<svg version="1.1" id="Layer_1" xmlns="http://www.w3.org/2000/svg" xmlns:xlink="http://www.w3.org/1999/xlink" x="0px" y="0px"
	 viewBox="0 0 800 400" style="enable-background:new 0 0 800 400;" xml:space="preserve">
<style type="text/css">
	.st0{fill:none;stroke:#231F20;stroke-miterlimit:10;}
</style>
<g>
	<path class="st0" d="M208.2,302.9c85.3-4.3,105-15.9,127.2-79.7c23-66,10-79.2-11.3-97c-28-23.3-204-36.3-243.5,0.2
		c-14.8,13.7-16.2,77.1-1.8,117.5C92.7,283.3,123,307.2,208.2,302.9"/>
	<path class="st0" d="M23.8,100.8c-4.7,2.1-6.4,35.9-2.4,42.6c4,6.7,9.6,8.1,12.3,11.8c4.9,6.6,7.9,21.2,11.7,40.3
		c10.1,51.3,25.8,104.1,79.7,114.3c81,15.3,124,9,157.7-1.8c29.5-9.5,50.6-16.8,79-97.5c9.4-26.7,13.4-43.3,38.3-44.6
		c24.9,1.2,28.9,17.8,38.3,44.6c28.3,80.7,49.5,88,79,97.5c33.7,10.8,76.7,17.2,157.7,1.8c53.8-10.2,69.6-63,79.7-114.3
		c3.7-19.1,6.7-33.8,11.7-40.3c2.8-3.7,8.3-5.2,12.3-11.8c4-6.7,2.3-40.5-2.4-42.6c-2.8-1.2-6.9-7.6-126.3-12.2
		c-119.3-4.7-152,1-180.3,14.3c-24,11.3-30,13-40.3,13.3c-6.5,0.2-20.1,0.3-29.3,0.3c-9.1,0-22.7-0.1-29.3-0.3
		c-10.3-0.3-16.3-2-40.3-13.3c-28.3-13.4-61-19-180.3-14.3C30.7,93.2,26.6,99.6,23.8,100.8"/>
	<path class="st0" d="M591.8,302.9c-85.3-4.3-105-15.9-127.2-79.7c-23-66-10-79.2,11.3-97c28-23.3,204-36.3,243.5,0.2
		c14.8,13.7,16.2,77.1,1.8,117.5C707.3,283.3,677,307.2,591.8,302.9"/>
</g>
</svg>
