<?xml version="1.0" encoding="utf-8"?>
<!-- Generator: Adobe Illustrator 19.1.0, SVG Export Plug-In . SVG Version: 6.00 Build 0)  -->
<svg version="1.1" id="Layer_1" xmlns="http://www.w3.org/2000/svg" xmlns:xlink="http://www.w3.org/1999/xlink" x="0px" y="0px"
	 viewBox="0 0 589.6 300" style="enable-background:new 0 0 589.6 300;" xml:space="preserve">
<style type="text/css">
	.st0{fill:#020203;}
	.st1{fill:#E72F4E;}
</style>
<g>
	<path class="st1" d="M301.6,99.9h22v17.5c5.7-13.5,16.6-17.5,33.4-17.5c19.6,0,28.6,6.2,28.6,25.3v75.1h-23.5V127
		c0-11.4-4.8-16.3-16.3-16.3c-14.8,0-20.8,8.8-20.8,31.1v58.4h-23.5V99.9z"/>
	<path class="st1" d="M288,200.3h-22v-17.5c-5.7,13.5-16.6,17.5-33.4,17.5c-19.6,0-28.6-6.2-28.6-25.3V99.9h23.5v73.3
		c0,11.4,4.8,16.3,16.3,16.3c14.8,0,20.8-8.8,20.8-31.1V99.9H288V200.3z"/>
	<path class="st1" d="M195.2,127v-1.1c0-18.7-15.8-28.4-40.8-28.4c-25.3,0-38.2,11.3-38.2,25.9v4.6c0,9.5,2.4,16.1,15.8,22.1h0
		c2.4,1.2,5.1,2.3,8.1,3.2l13.2,4.2c13.8,4.4,16.7,9,16.7,15.7v4.6c0,7.8-4.3,12.5-15.5,12.5c-11.5,0-18.1-5.8-18.1-18.1v-5.1
		l-22.7,6.2v1.1c0,18.7,15.8,28.4,40.8,28.4c25.3,0,38.2-11.3,38.2-25.9v-4.6c0-9.5-2.4-16.1-15.8-22.1h0c-2.4-1.2-5.1-2.3-8.1-3.2
		l-13.2-4.2c-13.8-4.4-16.7-9-16.7-15.7v-4.6c0-7.8,4.3-12.5,15.5-12.5c11.5,0,18.1,5.8,18.1,18.1v5.1L195.2,127z"/>
	<path class="st1" d="M475.9,126.9v-1.1c0-18.7-15.8-28.4-40.8-28.4c-25.3,0-38.2,11.3-38.2,25.9v4.6c0,9.5,2.4,16.1,15.8,22.1h0
		c2.4,1.2,5.1,2.3,8.1,3.2l13.2,4.2c13.8,4.4,16.7,9,16.7,15.7v4.6c0,7.8-4.3,12.5-15.5,12.5c-11.5,0-18.1-2.7-18.1-14.9v-8.2
		l-22.7,6.2v1.1c0,18.7,15.8,28.4,40.8,28.4c25.3,0,38.2-11.3,38.2-25.9v-4.6c0-9.5-2.4-16.1-15.8-22.1h0c-2.4-1.2-5.1-2.3-8.1-3.2
		l-13.2-4.2c-13.8-4.4-16.7-9-16.7-15.7v-4.6c0-7.8,4.3-12.5,15.5-12.5c11.5,0,18.1,5.8,18.1,18.1v5.1L475.9,126.9z"/>
</g>
</svg>
