<?xml version="1.0" encoding="utf-8"?>
<!-- Generator: Adobe Illustrator 22.0.0, SVG Export Plug-In . SVG Version: 6.00 Build 0)  -->
<svg version="1.1" id="Layer_1" xmlns="http://www.w3.org/2000/svg" xmlns:xlink="http://www.w3.org/1999/xlink" x="0px" y="0px"
	 viewBox="0 0 100 100" style="enable-background:new 0 0 100 100;" xml:space="preserve">
<g fill="#000000">
	<g>
		<path class="st2" d="M51.1,41.9h3.7v2.9c1-2.2,2.8-2.9,5.6-2.9c3.3,0,4.8,1,4.8,4.2v12.5h-3.9V46.4c0-1.9-0.8-2.7-2.7-2.7
			c-2.5,0-3.5,1.5-3.5,5.2v9.8h-3.9V41.9z"/>
		<path class="st2" d="M48.8,58.7h-3.7v-2.9c-1,2.2-2.8,2.9-5.6,2.9c-3.3,0-4.8-1-4.8-4.2V41.9h3.9v12.2c0,1.9,0.8,2.7,2.7,2.7
			c2.5,0,3.5-1.5,3.5-5.2v-9.8h3.9V58.7z"/>
		<path class="st2" d="M80.2,46.4v-0.2c0-3.1-2.6-4.7-6.8-4.7c-4.2,0-6.4,1.9-6.4,4.3v0.8c0,1.6,0.4,2.7,2.6,3.7h0
			c0.4,0.2,0.9,0.4,1.4,0.5l2.2,0.7c2.3,0.7,2.8,1.5,2.8,2.6v0.8c0,1.3-0.7,2.1-2.6,2.1c-1.9,0-3-0.4-3-2.5v-1.4l-3.8,1v0.2
			c0,3.1,2.6,4.7,6.8,4.7c4.2,0,6.4-1.9,6.4-4.3V54c0-1.6-0.4-2.7-2.6-3.7h0c-0.4-0.2-0.9-0.4-1.4-0.5l-2.2-0.7
			c-2.3-0.7-2.8-1.5-2.8-2.6v-0.8c0-1.3,0.7-2.1,2.6-2.1c1.9,0,3,0.4,3,2.5v1.4L80.2,46.4z"/>
		<path class="st2" d="M33.4,46.4v-0.2c0-3.1-2.6-4.7-6.8-4.7c-4.2,0-6.4,1.9-6.4,4.3v0.8c0,1.6,0.4,2.7,2.6,3.7h0
			c0.4,0.2,0.9,0.4,1.4,0.5l2.2,0.7c2.3,0.7,2.8,1.5,2.8,2.6v0.8c0,1.3-0.7,2.1-2.6,2.1c-1.9,0-3-0.4-3-2.5v-1.4l-3.8,1v0.2
			c0,3.1,2.6,4.7,6.8,4.7c4.2,0,6.4-1.9,6.4-4.3V54c0-1.6-0.4-2.7-2.6-3.7h0c-0.4-0.2-0.9-0.4-1.4-0.5l-2.2-0.7
			c-2.3-0.7-2.8-1.5-2.8-2.6v-0.8c0-1.3,0.7-2.1,2.6-2.1c1.9,0,3,0.4,3,2.5v1.4L33.4,46.4z"/>
	</g>
	<g>
		<path class="st2" d="M2.8,47.1l2.3,0.2L5.3,44L6.1,44l-0.2,3.3l3.2,0.2l-0.1,1L1.9,48l0.3-4.4L3,43.7L2.8,47.1z"/>
		<path class="st2" d="M6.1,41.3c-2.3-0.6-3.3-2.2-2.8-4.1c0.5-1.9,2.2-2.8,4.4-2.2c2.2,0.6,3.3,2.2,2.8,4.1
			C10.1,41,8.3,41.9,6.1,41.3z M7.5,36c-1.8-0.5-3,0.1-3.4,1.4c-0.4,1.4,0.5,2.5,2.3,2.9c1.7,0.4,3.1-0.1,3.4-1.5
			C10.2,37.5,9.3,36.5,7.5,36z"/>
		<path class="st2" d="M10.6,30.1l-0.6,1.3l2.7,1.3l-0.4,0.9l-6.4-3.1l1.2-2.4c0.8-1.7,2-1.7,2.9-1.2c0.7,0.4,1.3,1.1,1,2.3l3.6-0.3
			l-0.5,1L10.6,30.1z M9.2,31.1l0.7-1.4c0.5-1,0.1-1.6-0.5-1.9c-0.7-0.3-1.3-0.2-1.8,0.8l-0.7,1.4L9.2,31.1z"/>
		<path class="st2" d="M19,19.6L17,21.8l1,1.9l-0.7,0.7l-3.5-6.8l0.6-0.7l7.1,2.8L21,20.5L19,19.6z M18.2,19.3l-2.7-1.1
			c-0.2-0.1-0.3-0.1-0.5-0.2l0,0c0.1,0.2,0.2,0.3,0.3,0.5l1.4,2.6L18.2,19.3z"/>
		<path class="st2" d="M29.4,11.7c0.5,0.8,0.6,2-0.9,2.9l-2.3,1.4l-3.8-6l2.1-1.3c1.6-1,2.6-0.4,3,0.3c0.4,0.6,0.4,1.3-0.2,1.9
			C28.1,10.7,28.9,10.9,29.4,11.7z M23.6,10.2l1.2,1.9l1.3-0.8c1-0.7,0.9-1.3,0.6-1.7c-0.3-0.5-0.9-0.8-1.8-0.2L23.6,10.2z
			 M28.5,12.1c-0.4-0.6-1-0.8-1.8-0.3l-1.5,1l1.3,2.1L28,14C28.9,13.4,28.9,12.7,28.5,12.1z"/>
		<path class="st2" d="M34,8.6l-1.3,0.5l1.1,2.8l-0.9,0.4l-2.6-6.6l2.5-1c1.7-0.7,2.6,0.1,3,1.1c0.3,0.7,0.2,1.7-0.8,2.4l2.8,2.2
			l-1,0.4L34,8.6z M32.3,8.3l1.5-0.6c1-0.4,1.2-1.1,0.9-1.7c-0.3-0.7-0.8-1.1-1.8-0.7L31.4,6L32.3,8.3z"/>
		<path class="st2" d="M40.2,9.7l-1.6-7l0.9-0.2l1.6,7L40.2,9.7z"/>
		<path class="st2" d="M43.4,5.3c-0.2-2.2,0.9-3.8,3-4c2-0.1,2.7,1.2,2.9,2l-0.9,0.2c-0.1-0.6-0.6-1.4-1.9-1.3
			c-1.5,0.1-2.2,1.4-2.1,3.1c0.1,1.6,1,2.9,2.5,2.7c1.8-0.1,1.9-1.6,1.9-2.3l0-0.1l-2.1,0.2l-0.1-0.8l2.9-0.2l0.3,3.7l-0.7,0.1
			l-0.2-1.1c-0.3,0.8-1,1.4-2.1,1.5C44.9,9,43.6,7.5,43.4,5.3z"/>
		<path class="st2" d="M58,9.2l-0.9-0.1l0.4-3.2l-3.6-0.5l-0.4,3.2l-0.9-0.1l0.9-7.1l0.9,0.1L54,4.6l3.6,0.5L58,2l0.9,0.1L58,9.2z"
			/>
		<path class="st2" d="M67.3,5.4l-2.1-0.7l-2,6l-0.9-0.3l2-6l-2.1-0.7l0.3-0.8l5.2,1.7L67.3,5.4z"/>
		<path class="st2" d="M74.5,9l-1.2,1.9l2.8,1.8l-0.4,0.7l-2.8-1.8l-1.7,2.7l-0.8-0.5l3.8-6l3.7,2.4l-0.4,0.7L74.5,9z"/>
		<path class="st2" d="M81.5,13.1l-3.1,3.3c-0.8,0.8-0.8,1.8,0,2.6c0.8,0.8,1.8,0.7,2.6-0.2l3.1-3.3l0.7,0.7l-3.2,3.4
			c-1.1,1.2-2.5,1.3-3.8,0.1c-1.3-1.2-1.3-2.7-0.2-3.8l3.2-3.4L81.5,13.1z"/>
		<path class="st2" d="M89.6,23.5l-1.3-1.8l-5.1,3.8l-0.6-0.8l5.1-3.8l-1.3-1.8l0.6-0.5l3.2,4.4L89.6,23.5z"/>
		<path class="st2" d="M92.4,26.8l-4.1,2c-1,0.5-1.4,1.4-0.9,2.4c0.5,1,1.4,1.3,2.5,0.8l4.1-2l0.4,0.9l-4.2,2
			c-1.4,0.7-2.8,0.3-3.6-1.3c-0.8-1.6-0.2-2.9,1.2-3.6l4.2-2L92.4,26.8z"/>
		<path class="st2" d="M92.4,38.3l-0.4-1.4l-2.9,0.7L89,36.8l6.9-1.8l0.7,2.6c0.5,1.8-0.4,2.5-1.4,2.8c-0.8,0.2-1.7,0-2.3-1.1
			l-2.5,2.6l-0.3-1L92.4,38.3z M92.8,36.7l0.4,1.5c0.3,1.1,0.9,1.3,1.6,1.1c0.7-0.2,1.2-0.7,0.9-1.7l-0.4-1.5L92.8,36.7z"/>
		<path class="st2" d="M91.7,48.8l-0.8,0.1l-0.3-4.5l7.1-0.5l0.3,4.4l-0.8,0.1L97,44.9L94.7,45l0.2,3.3l-0.8,0.1l-0.2-3.3l-2.4,0.2
			L91.7,48.8z"/>
	</g>
	<g>
		<path class="st2" d="M89,62l0.2-0.9l3.2,0.8l0.9-3.5l-3.2-0.8l0.2-0.9l6.9,1.7L97,59.3l-3-0.7L93.2,62l3,0.7l-0.2,0.9L89,62z"/>
		<path class="st2" d="M88.2,69.2l1.3-2.6L87.9,65l0.4-0.9l5.3,5.5l-0.4,0.9l-7.6-0.6L86,69L88.2,69.2z M89,69.3l2.9,0.3
			c0.2,0,0.4,0,0.6,0.1l0,0c-0.2-0.1-0.3-0.3-0.4-0.4L90,67.2L89,69.3z"/>
		<path class="st2" d="M90,76.1L89.3,77l-6-0.7c-0.4-0.1-0.7-0.1-1-0.2l0,0c0.2,0.1,0.4,0.3,0.8,0.5l4.1,3.1l-0.5,0.7L81,76.2
			l0.7-0.9l6,0.7c0.4,0.1,0.7,0.1,1,0.2l0,0c-0.2-0.1-0.4-0.3-0.8-0.5l-4.1-3.1l0.5-0.7L90,76.1z"/>
		<path class="st2" d="M83.6,83.8l-1.8,1.5c-1.5,1.4-3.5,1.2-4.9-0.4c-1.4-1.6-1.4-3.6,0.2-4.9l1.7-1.5L83.6,83.8z M77.7,80.6
			c-1.2,1-1,2.5,0,3.7c1,1.2,2.5,1.5,3.6,0.5l1-0.9l-3.6-4.1L77.7,80.6z"/>
		<path class="st2" d="M76,89.9l-1.2,0.7l-4.3-3.9c-0.3-0.3-0.3-0.3-0.5-0.5l0,0c0.1,0.2,0.1,0.3,0.2,0.7l1,5.7L70,93.2L66.6,87
			l0.8-0.4l2.6,4.8c0.1,0.3,0.2,0.5,0.3,0.7l0,0c0-0.1-0.2-0.6-0.2-0.8l-1-5.7l0.8-0.4l4.3,3.9c0.2,0.2,0.5,0.5,0.6,0.6l0,0
			c-0.1-0.2-0.3-0.4-0.4-0.7l-2.6-4.8l0.8-0.4L76,89.9z"/>
		<path class="st2" d="M60.6,91.1l2.8-0.8l0.1-2.2l0.9-0.3l-0.6,7.6l-0.9,0.3l-4.6-6.1l0.9-0.3L60.6,91.1z M61.1,91.8l1.7,2.4
			c0.1,0.1,0.2,0.3,0.3,0.5l0,0c0-0.2,0-0.4,0-0.6l0.2-3L61.1,91.8z"/>
		<path class="st2" d="M56.7,97l-2.3,0.2c-2,0.2-3.5-1.1-3.7-3.3c-0.2-2.1,1-3.7,3.1-3.9l2.3-0.2L56.7,97z M53.9,90.9
			c-1.5,0.1-2.3,1.4-2.2,3c0.1,1.6,1.1,2.7,2.6,2.5l1.4-0.1l-0.5-5.5L53.9,90.9z"/>
		<path class="st2" d="M43.3,90.6l0.1-0.8l4.5,0.5l-0.7,7.1L42.7,97l0.1-0.8l3.4,0.4l0.2-2.3l-3.3-0.3l0.1-0.8l3.3,0.3l0.2-2.4
			L43.3,90.6z"/>
		<path class="st2" d="M36.9,88.2l-2.4,6.7l-0.9-0.3l2.4-6.7L36.9,88.2z"/>
		<path class="st2" d="M29.7,93l-1-0.5l-0.2-6c0-0.4,0-0.7,0-1l0,0c-0.1,0.2-0.2,0.5-0.4,0.8l-2.4,4.5l-0.8-0.4l3.4-6.3l1,0.5l0.2,6
			c0,0.4,0,0.7,0,1l0,0c0.1-0.2,0.2-0.5,0.4-0.8l2.4-4.5l0.8,0.4L29.7,93z"/>
		<path class="st2" d="M22.7,79.8l-4.8,5.3l-0.7-0.6l4.8-5.3L22.7,79.8z"/>
		<path class="st2" d="M11.9,77.5l1.4,1.7l4.9-4.1l0.6,0.7L14,80l1.4,1.7l-0.6,0.5L11.3,78L11.9,77.5z"/>
		<path class="st2" d="M12.3,70l1.5,2.5l2.1-0.4l0.5,0.8l-7.5,1.3l-0.5-0.8l4.8-6l0.5,0.8L12.3,70z M11.7,70.6l-1.9,2.3
			c-0.1,0.1-0.2,0.3-0.4,0.4l0,0c0.2-0.1,0.4-0.1,0.6-0.1l2.9-0.6L11.7,70.6z"/>
		<path class="st2" d="M5.6,67.8l-0.3-0.9l5.9-2.2L10,61.6l0.8-0.3l1.5,4L5.6,67.8z"/>
		<path class="st2" d="M7.3,59l-3.7,3.3l-0.2-1L6,59c0.2-0.1,0.3-0.2,0.4-0.3l0,0c-0.1,0-0.2,0-0.4-0.1l-3.3-1l-0.2-1l4.7,1.5
			l2.8-0.6l0.2,0.9L7.3,59z"/>
	</g>
</g>
</svg>
