<?xml version="1.0" encoding="utf-8"?>
<!-- Generator: Adobe Illustrator 19.1.0, SVG Export Plug-In . SVG Version: 6.00 Build 0)  -->
<svg version="1.1" id="Layer_1" xmlns="http://www.w3.org/2000/svg" xmlns:xlink="http://www.w3.org/1999/xlink" x="0px" y="0px"
	 viewBox="0 0 256 256" style="enable-background:new 0 0 256 256;" xml:space="preserve">
<g>
	<path d="M167.6,26.5c0.5,0.8,1.4,1.6,2.5,2.1c1.6,0.7,3,0.3,3.5-1c0.5-1.2,0.1-2.1-1.3-3.5c-1.7-1.6-2.5-3.2-1.7-4.9
		c0.8-1.9,3.1-2.7,5.5-1.6c1.3,0.6,2.1,1.2,2.5,1.8l-1,1.1c-0.3-0.4-1-1.1-2.1-1.6c-1.7-0.7-2.8,0-3.1,0.8c-0.5,1.2,0,2.1,1.4,3.5
		c1.7,1.7,2.4,3.2,1.6,5c-0.8,1.9-3,2.9-5.9,1.7c-1.2-0.5-2.3-1.4-2.8-2.2L167.6,26.5z"/>
	<path d="M182.7,20l1.5,0.9l-2.9,5.3l0,0c0.5-0.3,1.1-0.5,1.7-0.5c0.6,0,1.2,0.1,1.8,0.4c1.1,0.6,2.6,2.3,0.9,5.3l-2.8,5l-1.5-0.9
		l2.7-4.9c0.8-1.4,0.9-2.8-0.6-3.6c-1-0.6-2.2-0.3-2.9,0.4c-0.2,0.2-0.3,0.4-0.5,0.7l-2.8,5.1l-1.5-0.9L182.7,20z"/>
	<path d="M195.1,38.8c-2.1,2.9-5,2.8-6.9,1.4c-2.1-1.5-2.7-4.2-0.9-6.7c1.9-2.7,4.7-3,6.9-1.5C196.4,33.7,196.8,36.4,195.1,38.8z
		 M188.8,34.5c-1.2,1.7-1.1,3.7,0.3,4.7c1.4,1,3.3,0.4,4.6-1.4c0.9-1.3,1.5-3.5-0.2-4.7C191.7,31.9,189.8,33,188.8,34.5z"/>
	<path d="M198.1,39.2c0.8-0.9,1.4-1.7,2-2.4l1.2,1l-1,1.3l0,0c1.3-0.4,2.6-0.2,3.8,0.8c1.8,1.5,1.8,4.2-0.1,6.4
		c-2.3,2.6-5,2.5-6.7,1.1c-1-0.8-1.4-2-1.3-3.1l0,0l-3.4,4l-1.3-1.1L198.1,39.2z M197.7,42.2c-0.2,0.2-0.3,0.4-0.4,0.6
		c-0.6,1.1-0.3,2.5,0.6,3.3c1.4,1.2,3.2,0.8,4.7-0.9c1.3-1.5,1.6-3.4,0.2-4.6c-0.9-0.8-2.3-0.9-3.4-0.1c-0.2,0.1-0.4,0.3-0.6,0.5
		L197.7,42.2z"/>
	<path d="M209.4,56.1c0.1,0.9,0.5,2,1.3,3c1.1,1.4,2.5,1.6,3.6,0.7c1-0.8,1.1-1.8,0.5-3.7c-0.8-2.2-0.7-4,0.7-5.2
		c1.6-1.3,3.9-0.9,5.6,1.1c0.9,1.1,1.2,2.1,1.4,2.7l-1.4,0.5c-0.1-0.5-0.3-1.4-1.1-2.4c-1.2-1.4-2.5-1.3-3.2-0.7
		c-1,0.8-0.9,1.8-0.3,3.7c0.7,2.3,0.6,3.9-0.9,5.2c-1.6,1.3-4,1.2-6-1.2c-0.8-1-1.4-2.4-1.5-3.2L209.4,56.1z"/>
	<path d="M225.7,57.3l1,1.5l-5,3.3l0,0c0.6,0,1.2,0.1,1.7,0.4c0.5,0.3,1,0.7,1.4,1.2c0.7,1.1,1.2,3.3-1.6,5.1l-4.8,3.2l-1-1.5
		l4.6-3.1c1.3-0.9,2.1-2.1,1.2-3.5c-0.6-1-1.8-1.3-2.8-1c-0.3,0-0.5,0.2-0.8,0.4l-4.9,3.2l-1-1.5L225.7,57.3z"/>
	<path d="M228.1,79.8c-3.2,1.7-5.7,0.2-6.8-1.9c-1.2-2.3-0.4-5,2.3-6.4c2.9-1.5,5.5-0.5,6.8,1.9C231.6,75.8,230.7,78.4,228.1,79.8z
		 M224.4,73c-1.9,1-2.7,2.8-1.9,4.3c0.8,1.5,2.8,1.9,4.7,0.9c1.5-0.8,2.9-2.4,2-4.3C228.2,72.1,226.1,72.2,224.4,73z"/>
	<path d="M230.6,81.4c1.2-0.5,2.1-0.9,2.9-1.2l0.6,1.5l-1.5,0.7l0,0c1.4,0.2,2.4,1,3,2.5c0.9,2.2-0.3,4.5-3.1,5.6
		c-3.2,1.3-5.6-0.1-6.5-2.2c-0.5-1.2-0.4-2.4,0.3-3.3l0,0l-4.9,1.9l-0.6-1.6L230.6,81.4z M228.8,84c-0.2,0.1-0.5,0.2-0.6,0.3
		c-1,0.7-1.4,2-0.9,3.2c0.7,1.7,2.5,2.2,4.6,1.4c1.8-0.7,3-2.3,2.3-4c-0.4-1.1-1.7-1.8-3-1.7c-0.2,0-0.5,0.1-0.7,0.2L228.8,84z"/>
	<path d="M232.7,101.7c-0.3,0.9-0.5,2.1-0.2,3.2c0.4,1.7,1.5,2.6,2.8,2.3c1.2-0.2,1.8-1.1,2.1-3c0.3-2.3,1.2-3.9,3-4.2
		c2.1-0.4,3.9,1,4.4,3.6c0.3,1.4,0.2,2.4-0.1,3.1l-1.5-0.2c0.1-0.5,0.4-1.4,0.1-2.6c-0.4-1.8-1.6-2.3-2.5-2.1
		c-1.2,0.2-1.7,1.2-2,3.1c-0.4,2.4-1.3,3.8-3.2,4.2c-2,0.4-4.1-0.7-4.7-3.9c-0.3-1.3-0.2-2.7,0.2-3.5L232.7,101.7z"/>
	<path d="M246.6,110.3l0.2,1.8l-6,0.6l0,0c0.5,0.2,1,0.6,1.4,1.1c0.4,0.5,0.6,1.1,0.7,1.7c0.1,1.3-0.5,3.4-3.8,3.8l-5.7,0.6
		l-0.2-1.8l5.5-0.6c1.6-0.2,2.8-0.9,2.6-2.5c-0.1-1.1-1-1.9-2-2.2c-0.2-0.1-0.5-0.1-0.8,0l-5.8,0.6l-0.2-1.8L246.6,110.3z"/>
	<path d="M238.4,131.2c-3.6,0.1-5.2-2.4-5.2-4.7c0-2.6,1.8-4.7,4.9-4.7c3.2-0.1,5.2,2,5.2,4.7C243.4,129.2,241.4,131.1,238.4,131.2z
		 M238.2,123.5c-2.1,0-3.7,1.3-3.7,3c0,1.7,1.6,2.9,3.8,2.9c1.6,0,3.7-0.9,3.7-3S240,123.5,238.2,123.5z"/>
	<path d="M239.8,133.9c1.2,0.1,2.2,0.2,3.2,0.2l-0.2,1.6l-1.7-0.1l0,0c1.1,0.8,1.7,2,1.5,3.6c-0.2,2.3-2.4,3.9-5.3,3.6
		c-3.5-0.4-5-2.6-4.7-4.9c0.1-1.3,0.8-2.3,1.8-2.8l0,0l-5.2-0.5l0.2-1.7L239.8,133.9z M237,135.4c-0.3,0-0.5,0-0.7,0
		c-1.2,0.2-2.2,1.2-2.3,2.4c-0.2,1.9,1.2,3.1,3.4,3.3c1.9,0.2,3.7-0.6,3.9-2.5c0.1-1.2-0.6-2.4-1.9-2.9c-0.2-0.1-0.5-0.2-0.7-0.2
		L237,135.4z"/>
	<path d="M232.4,152.9c-0.7,0.6-1.4,1.6-1.7,2.8c-0.5,1.7,0.1,3,1.4,3.3c1.2,0.3,2.1-0.1,3.3-1.7c1.4-1.9,2.8-2.9,4.7-2.4
		c2,0.6,3,2.7,2.3,5.2c-0.4,1.3-1,2.2-1.5,2.7l-1.2-0.9c0.4-0.4,1-1.1,1.3-2.3c0.5-1.8-0.4-2.7-1.2-3c-1.2-0.3-2,0.3-3.2,1.9
		c-1.5,1.9-2.9,2.8-4.8,2.2c-2-0.6-3.3-2.6-2.4-5.6c0.4-1.2,1.1-2.5,1.8-3.1L232.4,152.9z"/>
	<path d="M240.7,166.9l-0.6,1.6l-5.6-2.2l0,0c0.4,0.4,0.6,1,0.7,1.6c0.1,0.6,0,1.2-0.2,1.9c-0.5,1.2-2,2.8-5.1,1.6l-5.4-2.1l0.6-1.6
		l5.2,2.1c1.4,0.6,2.9,0.5,3.5-1c0.4-1.1,0-2.2-0.8-2.8c-0.2-0.2-0.4-0.3-0.7-0.4l-5.4-2.2l0.6-1.6L240.7,166.9z"/>
	<path d="M223.7,181.7c-3.2-1.7-3.4-4.6-2.3-6.6c1.2-2.3,3.8-3.2,6.6-1.8c2.9,1.5,3.6,4.3,2.3,6.6
		C229,182.4,226.3,183.1,223.7,181.7z M227.2,174.9c-1.9-1-3.9-0.6-4.7,0.9c-0.8,1.5,0,3.3,2,4.3c1.5,0.8,3.7,1,4.6-0.9
		C230.1,177.4,228.8,175.7,227.2,174.9z"/>
	<path d="M223.8,184.7c1,0.7,1.9,1.2,2.7,1.7l-0.9,1.3l-1.4-0.8l0,0c0.6,1.3,0.5,2.6-0.3,3.9c-1.3,2-3.9,2.3-6.4,0.7
		c-2.9-1.9-3.2-4.6-1.9-6.5c0.7-1.1,1.8-1.7,2.9-1.6l0,0l-4.4-2.9l1-1.5L223.8,184.7z M220.6,184.8c-0.2-0.1-0.4-0.2-0.6-0.3
		c-1.2-0.4-2.5,0-3.2,1.1c-1,1.6-0.4,3.3,1.5,4.5c1.6,1.1,3.6,1.1,4.6-0.4c0.7-1,0.6-2.4-0.4-3.4c-0.2-0.2-0.3-0.4-0.5-0.5
		L220.6,184.8z"/>
	<path d="M208.4,198.1c-0.9,0.2-2,0.8-2.8,1.7c-1.2,1.3-1.3,2.7-0.3,3.6c0.9,0.9,1.9,0.8,3.7,0c2.1-1.1,3.8-1.3,5.2,0.1
		c1.5,1.4,1.5,3.8-0.4,5.7c-1,1-1.9,1.5-2.5,1.7l-0.7-1.3c0.5-0.2,1.4-0.5,2.2-1.4c1.3-1.3,1-2.6,0.3-3.2c-0.9-0.9-1.9-0.7-3.7,0.1
		c-2.2,1-3.8,1.1-5.2-0.2c-1.5-1.4-1.7-3.8,0.4-6.1c0.9-0.9,2.2-1.7,3-1.9L208.4,198.1z"/>
	<path d="M209.3,214.4l-1.3,1.2L204,211l0,0c0.1,0.6,0.1,1.2-0.1,1.8c-0.2,0.6-0.5,1.1-1,1.6c-1,0.9-3.1,1.6-5.3-0.9l-3.8-4.4
		l1.3-1.2l3.6,4.2c1,1.2,2.3,1.8,3.6,0.7c0.9-0.7,1-1.9,0.6-2.9c-0.1-0.2-0.2-0.5-0.5-0.7l-3.8-4.4l1.3-1.2L209.3,214.4z"/>
	<path d="M187.4,219.7c-2.1-2.9-0.9-5.6,1-7c2.1-1.5,4.9-1.1,6.7,1.4c1.9,2.7,1.2,5.4-1,7C191.8,222.7,189.1,222.1,187.4,219.7z
		 M193.6,215.2c-1.2-1.7-3.1-2.3-4.5-1.4c-1.4,1-1.5,3-0.3,4.8c0.9,1.3,2.8,2.6,4.5,1.4C195,218.8,194.7,216.7,193.6,215.2z"/>
	<path d="M186,222.4c0.6,1.1,1.1,1.9,1.6,2.7l-1.4,0.8l-0.9-1.4l0,0c-0.1,1.4-0.7,2.5-2.1,3.3c-2,1.1-4.5,0.3-6-2.3
		c-1.7-3-0.7-5.6,1.3-6.7c1.1-0.6,2.4-0.7,3.3-0.1l0,0l-2.6-4.6l1.5-0.8L186,222.4z M183.3,221c-0.1-0.2-0.3-0.4-0.4-0.6
		c-0.9-0.9-2.2-1.1-3.3-0.5c-1.6,0.9-1.8,2.8-0.8,4.7c0.9,1.7,2.6,2.7,4.3,1.7c1-0.6,1.6-1.9,1.3-3.2c-0.1-0.2-0.1-0.5-0.2-0.7
		L183.3,221z"/>
	<path d="M166.2,227.2c-0.9-0.2-2.1-0.2-3.2,0.2c-1.7,0.6-2.4,1.8-1.9,3.1c0.4,1.2,1.3,1.6,3.3,1.7c2.3,0,4,0.7,4.6,2.5
		c0.7,2-0.5,4-2.9,4.9c-1.3,0.4-2.4,0.5-3,0.3l0-1.5c0.5,0.1,1.5,0.2,2.6-0.2c1.7-0.6,2-1.9,1.8-2.7c-0.4-1.2-1.4-1.5-3.4-1.6
		c-2.4-0.1-3.9-0.8-4.5-2.6c-0.7-2,0.2-4.2,3.2-5.2c1.2-0.4,2.7-0.5,3.5-0.3L166.2,227.2z"/>
	<path d="M159.5,242.1l-1.7,0.4l-1.4-5.9l0,0c-0.2,0.6-0.5,1.1-0.9,1.5c-0.4,0.4-1,0.7-1.6,0.9c-1.3,0.3-3.5,0-4.2-3.3l-1.3-5.6
		l1.7-0.4l1.3,5.4c0.4,1.5,1.2,2.7,2.8,2.3c1.1-0.3,1.8-1.2,1.9-2.3c0-0.3,0-0.5-0.1-0.8l-1.3-5.7l1.7-0.4L159.5,242.1z"/>
	<path d="M137.6,236.6c-0.5-3.6,1.8-5.4,4.1-5.7c2.6-0.3,4.8,1.3,5.2,4.3c0.4,3.2-1.4,5.4-4.1,5.7
		C140.1,241.3,138,239.5,137.6,236.6z M145.2,235.5c-0.3-2.1-1.7-3.5-3.4-3.3c-1.7,0.2-2.7,1.9-2.4,4.1c0.2,1.6,1.3,3.6,3.4,3.3
		S145.5,237.3,145.2,235.5z"/>
	<path d="M135.2,238.4c0,1.2,0.1,2.2,0.2,3.2l-1.6,0l-0.1-1.7l0,0c-0.7,1.2-1.8,1.9-3.4,2c-2.3,0.1-4.1-1.9-4.2-4.8
		c-0.1-3.5,2-5.3,4.3-5.3c1.3,0,2.4,0.5,3,1.4l0,0l-0.1-5.3l1.7,0L135.2,238.4z M133.4,235.8c0-0.3-0.1-0.5-0.1-0.7
		c-0.4-1.2-1.4-2-2.7-2c-1.9,0-2.9,1.6-2.8,3.8c0.1,1.9,1.1,3.6,3,3.5c1.2,0,2.3-0.9,2.6-2.2c0.1-0.2,0.1-0.5,0.1-0.7L133.4,235.8z"
		/>
	<path d="M115.4,233.4c-0.7-0.6-1.8-1.2-3-1.3c-1.8-0.3-2.9,0.5-3.1,1.9c-0.2,1.2,0.4,2.1,2.1,3c2.1,1.1,3.2,2.4,2.9,4.3
		c-0.3,2.1-2.3,3.4-4.9,3c-1.4-0.2-2.3-0.7-2.8-1.1l0.7-1.3c0.4,0.3,1.2,0.8,2.4,1c1.8,0.3,2.7-0.7,2.8-1.6c0.2-1.2-0.5-2-2.3-3
		c-2.1-1.2-3.1-2.5-2.8-4.4c0.3-2.1,2.1-3.6,5.2-3.1c1.3,0.2,2.6,0.8,3.3,1.4L115.4,233.4z"/>
	<path d="M102.6,243.6l-1.7-0.4l1.5-5.9l0,0c-0.4,0.4-0.9,0.7-1.5,0.9c-0.6,0.2-1.2,0.2-1.9,0c-1.3-0.3-3.1-1.6-2.3-4.8l1.4-5.6
		l1.7,0.4l-1.4,5.4c-0.4,1.5-0.1,2.9,1.5,3.3c1.1,0.3,2.2-0.3,2.7-1.1c0.2-0.2,0.2-0.5,0.3-0.8l1.4-5.7l1.7,0.4L102.6,243.6z"/>
	<path d="M85.7,228.6c1.2-3.4,4.1-4,6.3-3.2c2.5,0.9,3.7,3.4,2.6,6.3c-1.1,3-3.8,4.1-6.3,3.2C85.7,233.9,84.6,231.4,85.7,228.6z
		 M92.9,231.1c0.7-2,0.1-3.9-1.5-4.5c-1.6-0.6-3.3,0.5-4.1,2.5c-0.6,1.5-0.5,3.8,1.4,4.5C90.8,234.4,92.3,232.9,92.9,231.1z"/>
	<path d="M82.7,229.1c-0.5,1.1-0.9,2-1.3,2.9l-1.4-0.7l0.7-1.5l0,0c-1.2,0.7-2.5,0.9-3.9,0.2c-2.1-1-2.8-3.6-1.5-6.2
		c1.5-3.1,4.2-3.7,6.2-2.7c1.2,0.6,1.9,1.6,2,2.7l0,0l2.3-4.7l1.6,0.8L82.7,229.1z M82.3,226c0.1-0.2,0.2-0.5,0.2-0.7
		c0.2-1.2-0.3-2.5-1.5-3c-1.7-0.8-3.3,0.1-4.3,2.1c-0.9,1.7-0.7,3.7,1,4.5c1.1,0.5,2.5,0.2,3.3-0.8c0.2-0.2,0.3-0.4,0.4-0.6
		L82.3,226z"/>
	<path d="M67.4,215.5c-0.3-0.8-1-1.8-2-2.6c-1.4-1.1-2.8-0.9-3.6,0.2c-0.7,1-0.6,2,0.5,3.7c1.3,1.9,1.7,3.7,0.6,5.2
		c-1.2,1.7-3.6,1.9-5.7,0.4c-1.1-0.8-1.7-1.7-2-2.3l1.2-0.9c0.2,0.5,0.7,1.3,1.7,2c1.5,1.1,2.7,0.6,3.2-0.1c0.7-1,0.5-2-0.6-3.7
		c-1.3-2.1-1.6-3.6-0.4-5.2c1.2-1.7,3.5-2.2,6.1-0.3c1,0.8,2,1.9,2.3,2.7L67.4,215.5z"/>
	<path d="M51.4,218.6l-1.3-1.2l4-4.5l0,0c-0.5,0.2-1.2,0.2-1.8,0.1c-0.6-0.1-1.2-0.4-1.7-0.8c-1-0.9-2-2.8,0.2-5.3l3.8-4.3l1.3,1.2
		l-3.7,4.1c-1,1.2-1.5,2.5-0.2,3.6c0.9,0.8,2.1,0.8,2.9,0.3c0.2-0.1,0.4-0.3,0.6-0.5l3.9-4.4l1.3,1.2L51.4,218.6z"/>
	<path d="M43.3,197.5c2.6-2.4,5.5-1.6,7,0.1c1.8,1.9,1.7,4.7-0.5,6.8c-2.4,2.2-5.2,1.9-7-0.1C40.9,202.2,41.1,199.5,43.3,197.5z
		 M48.6,203.1c1.6-1.4,1.9-3.4,0.8-4.7c-1.1-1.2-3.1-1.1-4.8,0.4c-1.2,1.1-2.2,3.1-0.8,4.7S47.2,204.3,48.6,203.1z"/>
	<path d="M40.5,196.5c-1,0.7-1.8,1.4-2.5,1.9l-0.9-1.3l1.3-1.1l0,0c-1.4,0.1-2.6-0.4-3.6-1.6c-1.4-1.9-0.8-4.5,1.5-6.2
		c2.8-2.1,5.4-1.4,6.8,0.4c0.8,1,1,2.3,0.6,3.3l0,0l4.2-3.1l1,1.4L40.5,196.5z M41.5,193.6c0.2-0.2,0.4-0.3,0.5-0.5
		c0.8-1,0.8-2.3,0.1-3.3c-1.1-1.5-3-1.5-4.8-0.1c-1.6,1.2-2.3,3-1.2,4.5c0.7,1,2.1,1.4,3.3,0.8c0.2-0.1,0.5-0.2,0.6-0.3L41.5,193.6z
		"/>
	<path d="M33.2,177.5c0.1-0.9-0.1-2.1-0.6-3.2c-0.8-1.6-2.1-2.1-3.3-1.5c-1.1,0.6-1.5,1.5-1.3,3.5c0.3,2.3-0.1,4-1.8,4.9
		c-1.9,0.9-4.1,0.1-5.2-2.3c-0.6-1.2-0.8-2.3-0.7-3l1.5-0.2c0,0.5,0,1.5,0.6,2.6c0.8,1.6,2.1,1.8,2.9,1.4c1.1-0.6,1.3-1.6,1.1-3.6
		c-0.2-2.4,0.2-4,2-4.8c1.9-0.9,4.2-0.3,5.6,2.5c0.6,1.2,0.9,2.6,0.8,3.5L33.2,177.5z"/>
	<path d="M17.5,172.8l-0.6-1.6l5.6-2.1l0,0c-0.6-0.1-1.1-0.3-1.6-0.7c-0.5-0.4-0.9-0.9-1.1-1.5c-0.5-1.2-0.4-3.4,2.7-4.6l5.4-2
		l0.6,1.6l-5.2,2c-1.5,0.6-2.5,1.6-1.9,3.1c0.4,1.1,1.5,1.6,2.5,1.6c0.3,0,0.5-0.1,0.8-0.2l5.5-2.1l0.6,1.6L17.5,172.8z"/>
	<path d="M20.1,150.3c3.5-0.9,5.6,1.1,6.2,3.3c0.7,2.5-0.7,5-3.6,5.8c-3.1,0.8-5.5-0.7-6.2-3.3C15.8,153.4,17.3,151.1,20.1,150.3z
		 M22.2,157.7c2-0.5,3.3-2.1,2.8-3.8c-0.4-1.6-2.3-2.4-4.4-1.9c-1.6,0.4-3.4,1.7-2.9,3.8C18.3,157.8,20.4,158.2,22.2,157.7z"/>
	<path d="M18.1,148.2c-1.2,0.2-2.2,0.4-3.1,0.6l-0.2-1.6l1.6-0.3l0,0c-1.3-0.5-2.1-1.5-2.4-3.1c-0.4-2.3,1.3-4.4,4.2-4.8
		c3.4-0.5,5.5,1.3,5.8,3.5c0.2,1.3-0.2,2.5-1,3.2l0,0l5.2-0.8l0.3,1.7L18.1,148.2z M20.3,146.1c0.3,0,0.5-0.1,0.7-0.2
		c1.2-0.5,1.8-1.7,1.6-2.9c-0.3-1.8-2-2.7-4.2-2.3c-1.9,0.3-3.4,1.6-3.1,3.4c0.2,1.2,1.2,2.2,2.6,2.3c0.2,0,0.5,0,0.7,0L20.3,146.1z
		"/>
	<path d="M20.4,127.9c0.5-0.8,0.9-1.9,0.9-3.1c0-1.8-0.9-2.8-2.2-2.9c-1.3,0-2,0.7-2.7,2.5c-0.8,2.2-2,3.5-3.9,3.5
		c-2.1,0-3.6-1.8-3.6-4.4c0-1.4,0.4-2.4,0.7-3L11,121c-0.2,0.4-0.7,1.3-0.7,2.5c0,1.8,1,2.6,2,2.6c1.3,0,1.9-0.8,2.7-2.6
		c0.9-2.3,2.1-3.4,4-3.4c2.1,0,3.8,1.6,3.8,4.8c0,1.3-0.4,2.7-0.9,3.4L20.4,127.9z"/>
	<path d="M8.7,116.5l0.2-1.7l6,0.7l0,0c-0.5-0.3-0.8-0.8-1.1-1.4c-0.2-0.6-0.4-1.2-0.3-1.8c0.2-1.3,1.2-3.3,4.5-2.9l5.7,0.7
		l-0.2,1.7l-5.5-0.6c-1.5-0.2-2.9,0.2-3.1,1.9c-0.1,1.1,0.6,2.1,1.5,2.5c0.2,0.1,0.5,0.2,0.8,0.2l5.8,0.7l-0.2,1.7L8.7,116.5z"/>
	<path d="M21.3,97.8c3.5,0.8,4.5,3.5,4,5.8c-0.6,2.6-2.9,4.1-5.9,3.4c-3.2-0.7-4.6-3.2-4-5.8C16.1,98.6,18.4,97.2,21.3,97.8z
		 M19.7,105.3c2.1,0.5,3.9-0.4,4.3-2.1c0.4-1.6-0.9-3.2-3-3.7c-1.6-0.4-3.8,0-4.3,2C16.3,103.6,18,104.9,19.7,105.3z"/>
	<path d="M20.5,94.9c-1.2-0.4-2.1-0.7-3-0.9l0.5-1.5l1.6,0.5l0,0c-0.9-1.1-1.2-2.4-0.7-3.9c0.7-2.2,3.2-3.3,6-2.3
		c3.3,1.1,4.3,3.7,3.5,5.8c-0.4,1.2-1.3,2.1-2.4,2.3l0,0l5,1.7l-0.6,1.7L20.5,94.9z M23.5,94.1c0.2,0.1,0.5,0.1,0.7,0.2
		c1.3,0.1,2.4-0.7,2.8-1.8c0.6-1.8-0.5-3.3-2.6-4c-1.8-0.6-3.7-0.2-4.3,1.6c-0.4,1.1,0.1,2.5,1.2,3.2c0.2,0.1,0.4,0.3,0.6,0.3
		L23.5,94.1z"/>
	<path d="M31.9,78c0.8-0.5,1.7-1.3,2.3-2.3c0.9-1.6,0.5-2.9-0.7-3.6c-1.1-0.6-2.1-0.3-3.6,0.9c-1.7,1.6-3.4,2.2-5.1,1.3
		c-1.8-1-2.4-3.3-1.1-5.6c0.7-1.2,1.4-1.9,2-2.3l1,1.1c-0.4,0.3-1.2,0.9-1.8,1.9c-0.9,1.6-0.3,2.8,0.5,3.2c1.1,0.6,2,0.2,3.6-1.1
		c1.9-1.6,3.4-2.1,5.1-1.1c1.8,1,2.7,3.2,1.1,6c-0.6,1.1-1.6,2.2-2.4,2.6L31.9,78z"/>
	<path d="M26.9,62.5l1-1.5l5,3.4l0,0c-0.3-0.5-0.4-1.1-0.3-1.7c0-0.6,0.2-1.2,0.6-1.8c0.7-1.1,2.6-2.3,5.3-0.5l4.8,3.2l-1,1.5
		L37.6,62c-1.3-0.9-2.7-1.1-3.6,0.2c-0.6,0.9-0.5,2.1,0.1,2.9c0.1,0.2,0.3,0.4,0.6,0.6l4.8,3.3l-1,1.5L26.9,62.5z"/>
	<path d="M46.7,51.8c2.7,2.3,2.3,5.2,0.8,7c-1.7,2-4.5,2.3-6.8,0.3c-2.5-2.1-2.6-4.9-0.8-7C41.7,50,44.4,49.9,46.7,51.8z M41.8,57.7
		c1.6,1.4,3.6,1.5,4.7,0.2c1.1-1.3,0.7-3.3-1-4.7c-1.3-1.1-3.4-1.8-4.7-0.2C39.5,54.6,40.4,56.5,41.8,57.7z"/>
	<path d="M47.3,48.9c-0.9-0.9-1.6-1.6-2.2-2.2l1.1-1.1l1.2,1.1l0,0c-0.3-1.3,0-2.6,1.2-3.7c1.7-1.6,4.3-1.4,6.4,0.7
		c2.4,2.5,2.1,5.2,0.4,6.8c-0.9,0.9-2.1,1.3-3.2,1l0,0l3.6,3.8l-1.3,1.2L47.3,48.9z M50.3,49.5c0.2,0.2,0.4,0.3,0.6,0.5
		c1.1,0.7,2.4,0.5,3.3-0.3c1.3-1.3,1.1-3.1-0.5-4.7c-1.3-1.4-3.2-1.9-4.6-0.6c-0.9,0.8-1.1,2.2-0.4,3.4c0.1,0.2,0.2,0.4,0.4,0.6
		L50.3,49.5z"/>
	<path d="M65.2,39.1c0.9,0,2.1-0.3,3.1-1c1.5-1,1.8-2.3,1.1-3.5c-0.7-1-1.7-1.2-3.6-0.8c-2.3,0.6-4,0.4-5.1-1.2
		c-1.2-1.7-0.6-4,1.6-5.5c1.1-0.8,2.2-1.1,2.8-1.1l0.4,1.4c-0.5,0-1.5,0.2-2.5,0.9c-1.5,1-1.5,2.3-1,3.1c0.7,1,1.7,1.1,3.7,0.7
		c2.4-0.5,4-0.3,5.1,1.4c1.2,1.7,0.9,4.1-1.8,5.8c-1.1,0.7-2.5,1.2-3.3,1.2L65.2,39.1z"/>
	<path d="M67.9,23l1.6-0.8l2.9,5.3l0,0c0-0.6,0.2-1.2,0.5-1.7c0.3-0.5,0.8-1,1.3-1.3c1.1-0.6,3.4-0.9,4.9,2l2.7,5.1l-1.6,0.8
		l-2.6-4.9c-0.7-1.4-1.9-2.3-3.3-1.5c-1,0.5-1.4,1.7-1.2,2.7c0,0.3,0.1,0.5,0.3,0.8l2.8,5.1l-1.6,0.8L67.9,23z"/>
	<path d="M90.4,22.7c1.4,3.3-0.3,5.7-2.5,6.6c-2.4,1-5,0-6.2-2.8c-1.2-3,0-5.6,2.5-6.6C86.8,18.8,89.3,19.9,90.4,22.7z M83.4,25.7
		c0.8,2,2.5,3,4.1,2.3c1.6-0.6,2.1-2.6,1.3-4.6c-0.6-1.5-2.2-3.1-4.1-2.3S82.7,24,83.4,25.7z"/>
	<path d="M92.3,20.3c-0.3-1.2-0.7-2.1-1-3l1.5-0.4l0.5,1.6l0,0c0.4-1.3,1.3-2.3,2.8-2.8c2.2-0.7,4.5,0.7,5.3,3.6
		c1,3.3-0.6,5.6-2.8,6.2c-1.2,0.4-2.5,0.1-3.3-0.6l0,0l1.5,5l-1.7,0.5L92.3,20.3z M94.7,22.3c0.1,0.2,0.2,0.5,0.3,0.7
		c0.7,1.1,1.9,1.6,3.1,1.2c1.8-0.5,2.4-2.3,1.8-4.4c-0.5-1.9-2-3.2-3.8-2.6c-1.2,0.3-2,1.5-1.9,2.8c0,0.2,0,0.5,0.1,0.7L94.7,22.3z"
		/>
	<path d="M112.7,20c0.8,0.4,2,0.7,3.2,0.5c1.8-0.2,2.7-1.2,2.6-2.6c-0.1-1.3-0.9-1.9-2.8-2.4c-2.3-0.5-3.7-1.5-4-3.4
		c-0.2-2.1,1.3-3.8,3.9-4.1c1.4-0.1,2.4,0.1,3,0.3l-0.3,1.5c-0.5-0.2-1.4-0.5-2.6-0.4c-1.8,0.2-2.4,1.4-2.3,2.3
		c0.1,1.3,1,1.8,2.9,2.3c2.4,0.6,3.6,1.6,3.8,3.6c0.2,2.1-1.1,4-4.3,4.4c-1.3,0.1-2.7-0.1-3.5-0.5L112.7,20z"/>
	<path d="M122.5,7l1.8,0l0.1,6l0,0c0.3-0.5,0.7-1,1.2-1.3c0.5-0.3,1.1-0.5,1.8-0.5c1.3,0,3.4,0.7,3.4,4.1l0.1,5.8l-1.8,0l-0.1-5.6
		c0-1.6-0.6-2.9-2.3-2.8c-1.1,0-2,0.8-2.3,1.8c-0.1,0.2-0.1,0.5-0.1,0.8l0.1,5.8l-1.8,0L122.5,7z"/>
	<path d="M142.7,17.1c-0.3,3.6-2.9,4.9-5.3,4.7c-2.6-0.2-4.4-2.3-4.2-5.4c0.3-3.2,2.6-4.9,5.2-4.7C141.3,12,142.9,14.1,142.7,17.1z
		 M135,16.5c-0.2,2.1,0.9,3.8,2.6,4c1.7,0.1,3.1-1.3,3.3-3.5c0.1-1.6-0.5-3.8-2.6-4S135.2,14.7,135,16.5z"/>
	<path d="M145.4,15.9c0.2-1.2,0.4-2.2,0.5-3.1l1.6,0.3l-0.2,1.6l0,0c0.9-1,2.2-1.5,3.7-1.2c2.3,0.4,3.6,2.7,3.1,5.6
		c-0.7,3.4-3.1,4.7-5.3,4.3c-1.3-0.2-2.2-1-2.6-2.1l0,0l-1,5.2l-1.7-0.3L145.4,15.9z M146.7,18.7c0,0.3-0.1,0.5-0.1,0.7
		c0.1,1.3,1,2.3,2.2,2.5c1.8,0.4,3.2-0.9,3.6-3.1c0.4-1.9-0.3-3.7-2.1-4.1c-1.2-0.2-2.4,0.4-3,1.6c-0.1,0.2-0.2,0.4-0.3,0.7
		L146.7,18.7z"/>
</g>
</svg>
